# MagicaVoxel @ Ephtracy

# group
o 

# material
mtllib FireEffect.mtl
usemtl palette

# normals
vn -1 0 0
vn 1 0 0
vn 0 0 1
vn 0 0 -1
vn 0 -1 0
vn 0 1 0

# texcoords
vt 0.0917969 0.5
vt 0.751953 0.5
vt 0.841797 0.5
vt 0.958984 0.5

# verts
v -0.2 0 0.2
v -0.2 0 0.1
v -0.2 0 0
v -0.2 0 -0.1
v -0.2 0.1 0.1
v -0.2 0.1 0
v -0.2 0.1 -0.1
v -0.2 0.1 -0.2
v -0.2 0.2 0.1
v -0.2 0.2 0
v -0.2 0.2 -0.1
v -0.2 0.2 -0.2
v -0.2 0.3 0.2
v -0.2 0.3 0.1
v -0.2 0.3 0
v -0.2 0.3 -0.1
v -0.1 0 -0.1
v -0.1 0 -0.2
v -0.1 0.1 -0.1
v -0.1 0.1 -0.2
v -0.1 0.2 -0.1
v -0.1 0.2 -0.2
v -0.1 0.3 -0.1
v -0.1 0.3 -0.2
v 0 0 -0.1
v 0 0 -0.2
v 0 0.1 -0.1
v 0 0.1 -0.2
v 0 0.2 -0.1
v 0 0.2 -0.2
v 0 0.3 -0.1
v 0 0.3 -0.2
v 0.1 0 0.2
v 0.1 0 0.1
v 0.1 0 0
v 0.1 0 -0.1
v 0.1 0.1 0.1
v 0.1 0.1 0
v 0.1 0.1 -0.1
v 0.1 0.1 -0.2
v 0.1 0.2 0.1
v 0.1 0.2 0
v 0.1 0.2 -0.1
v 0.1 0.2 -0.2
v 0.1 0.3 0.2
v 0.1 0.3 0.1
v 0.1 0.3 0
v 0.1 0.3 -0.1
v -0.2 0 0.2
v -0.2 0.3 0.2
v 0.1 0 0.2
v 0.1 0.3 0.2
v -0.2 0 -0.1
v -0.2 0.1 -0.1
v -0.2 0.2 -0.1
v -0.2 0.3 -0.1
v -0.1 0 -0.1
v -0.1 0.1 -0.1
v -0.1 0.2 -0.1
v -0.1 0.3 -0.1
v 0 0 -0.1
v 0 0.1 -0.1
v 0 0.2 -0.1
v 0 0.3 -0.1
v 0.1 0 -0.1
v 0.1 0.1 -0.1
v 0.1 0.2 -0.1
v 0.1 0.3 -0.1
v -0.2 0.1 -0.2
v -0.2 0.2 -0.2
v -0.1 0 -0.2
v -0.1 0.1 -0.2
v -0.1 0.2 -0.2
v -0.1 0.3 -0.2
v 0 0 -0.2
v 0 0.1 -0.2
v 0 0.2 -0.2
v 0 0.3 -0.2
v 0.1 0.1 -0.2
v 0.1 0.2 -0.2
v -0.2 0 0.2
v 0.1 0 0.2
v -0.2 0 0.1
v -0.1 0 0.1
v 0 0 0.1
v 0.1 0 0.1
v -0.2 0 0
v -0.1 0 0
v 0 0 0
v 0.1 0 0
v -0.2 0 -0.1
v -0.1 0 -0.1
v 0 0 -0.1
v 0.1 0 -0.1
v -0.1 0 -0.2
v 0 0 -0.2
v -0.2 0.1 -0.1
v -0.1 0.1 -0.1
v 0 0.1 -0.1
v 0.1 0.1 -0.1
v -0.2 0.1 -0.2
v -0.1 0.1 -0.2
v 0 0.1 -0.2
v 0.1 0.1 -0.2
v -0.2 0.2 -0.1
v -0.1 0.2 -0.1
v 0 0.2 -0.1
v 0.1 0.2 -0.1
v -0.2 0.2 -0.2
v -0.1 0.2 -0.2
v 0 0.2 -0.2
v 0.1 0.2 -0.2
v -0.2 0.3 0.2
v 0.1 0.3 0.2
v -0.2 0.3 0.1
v -0.1 0.3 0.1
v 0 0.3 0.1
v 0.1 0.3 0.1
v -0.2 0.3 0
v -0.1 0.3 0
v 0 0.3 0
v 0.1 0.3 0
v -0.2 0.3 -0.1
v -0.1 0.3 -0.1
v 0 0.3 -0.1
v 0.1 0.3 -0.1
v -0.1 0.3 -0.2
v 0 0.3 -0.2

# faces
f 5/1/1 2/1/1 1/1/1
f 5/3/1 3/3/1 2/3/1
f 6/2/1 4/2/1 3/2/1
f 6/3/1 3/3/1 5/3/1
f 7/2/1 4/2/1 6/2/1
f 9/1/1 5/1/1 1/1/1
f 9/1/1 6/1/1 5/1/1
f 10/3/1 7/3/1 6/3/1
f 10/1/1 6/1/1 9/1/1
f 11/4/1 8/4/1 7/4/1
f 11/3/1 7/3/1 10/3/1
f 12/4/1 8/4/1 11/4/1
f 13/1/1 9/1/1 1/1/1
f 14/3/1 10/3/1 9/3/1
f 14/1/1 9/1/1 13/1/1
f 15/2/1 11/2/1 10/2/1
f 15/3/1 10/3/1 14/3/1
f 16/2/1 11/2/1 15/2/1
f 19/4/1 18/4/1 17/4/1
f 20/4/1 18/4/1 19/4/1
f 23/4/1 22/4/1 21/4/1
f 24/4/1 22/4/1 23/4/1
f 25/4/2 26/4/2 27/4/2
f 27/4/2 26/4/2 28/4/2
f 29/4/2 30/4/2 31/4/2
f 31/4/2 30/4/2 32/4/2
f 33/1/2 34/1/2 37/1/2
f 34/3/2 35/3/2 37/3/2
f 35/2/2 36/2/2 38/2/2
f 37/3/2 35/3/2 38/3/2
f 38/2/2 36/2/2 39/2/2
f 33/1/2 37/1/2 41/1/2
f 37/1/2 38/1/2 41/1/2
f 38/3/2 39/3/2 42/3/2
f 41/1/2 38/1/2 42/1/2
f 39/4/2 40/4/2 43/4/2
f 42/3/2 39/3/2 43/3/2
f 43/4/2 40/4/2 44/4/2
f 33/1/2 41/1/2 45/1/2
f 41/3/2 42/3/2 46/3/2
f 45/1/2 41/1/2 46/1/2
f 42/2/2 43/2/2 47/2/2
f 46/3/2 42/3/2 47/3/2
f 47/2/2 43/2/2 48/2/2
f 51/1/3 50/1/3 49/1/3
f 52/1/3 50/1/3 51/1/3
f 53/2/4 54/2/4 57/2/4
f 57/2/4 54/2/4 58/2/4
f 55/2/4 56/2/4 59/2/4
f 59/2/4 56/2/4 60/2/4
f 61/2/4 62/2/4 65/2/4
f 65/2/4 62/2/4 66/2/4
f 63/2/4 64/2/4 67/2/4
f 67/2/4 64/2/4 68/2/4
f 69/4/4 70/4/4 72/4/4
f 72/4/4 70/4/4 73/4/4
f 71/4/4 72/4/4 75/4/4
f 73/4/4 74/4/4 75/4/4
f 72/4/4 73/4/4 75/4/4
f 75/4/4 74/4/4 76/4/4
f 76/4/4 74/4/4 77/4/4
f 77/4/4 74/4/4 78/4/4
f 76/4/4 77/4/4 79/4/4
f 79/4/4 77/4/4 80/4/4
f 83/1/5 82/1/5 81/1/5
f 84/1/5 82/1/5 83/1/5
f 85/1/5 82/1/5 84/1/5
f 86/1/5 82/1/5 85/1/5
f 87/3/5 84/3/5 83/3/5
f 88/1/5 85/1/5 84/1/5
f 88/3/5 84/3/5 87/3/5
f 89/3/5 86/3/5 85/3/5
f 89/1/5 85/1/5 88/1/5
f 90/3/5 86/3/5 89/3/5
f 91/2/5 88/2/5 87/2/5
f 92/3/5 89/3/5 88/3/5
f 92/2/5 88/2/5 91/2/5
f 93/2/5 90/2/5 89/2/5
f 93/3/5 89/3/5 92/3/5
f 94/2/5 90/2/5 93/2/5
f 95/4/5 93/4/5 92/4/5
f 96/4/5 93/4/5 95/4/5
f 101/4/5 98/4/5 97/4/5
f 102/4/5 98/4/5 101/4/5
f 103/4/5 100/4/5 99/4/5
f 104/4/5 100/4/5 103/4/5
f 105/4/6 106/4/6 109/4/6
f 109/4/6 106/4/6 110/4/6
f 107/4/6 108/4/6 111/4/6
f 111/4/6 108/4/6 112/4/6
f 113/1/6 114/1/6 115/1/6
f 115/1/6 114/1/6 116/1/6
f 116/1/6 114/1/6 117/1/6
f 117/1/6 114/1/6 118/1/6
f 115/3/6 116/3/6 119/3/6
f 116/1/6 117/1/6 120/1/6
f 119/3/6 116/3/6 120/3/6
f 117/3/6 118/3/6 121/3/6
f 120/1/6 117/1/6 121/1/6
f 121/3/6 118/3/6 122/3/6
f 119/2/6 120/2/6 123/2/6
f 120/3/6 121/3/6 124/3/6
f 123/2/6 120/2/6 124/2/6
f 121/2/6 122/2/6 125/2/6
f 124/3/6 121/3/6 125/3/6
f 125/2/6 122/2/6 126/2/6
f 124/4/6 125/4/6 127/4/6
f 127/4/6 125/4/6 128/4/6
